<svg width="30.572083" height="62.308228" viewBox="0 0 30.5721 62.3082" fill="none" xmlns="http://www.w3.org/2000/svg" xmlns:xlink="http://www.w3.org/1999/xlink">
	<desc>
			Created with Pixso.
	</desc>
	<defs/>
	<path id="arrow" d="M1.59 3.4L2.98 5.73C3.13 5.97 3.05 6.27 2.81 6.41C2.57 6.56 2.27 6.48 2.13 6.24L0.07 2.81C-0.08 2.57 0 2.27 0.24 2.13L3.67 0.07C3.91 -0.08 4.21 0 4.36 0.24C4.5 0.48 4.42 0.78 4.18 0.93L1.73 2.4Q2.74 2.71 3.84 3.13Q5.55 3.79 7.26 4.6Q9.4 5.62 11.4 6.82Q16.5 9.9 20.33 13.94Q23.68 17.49 25.91 21.63Q26.87 23.41 27.63 25.3Q30.12 31.59 30.5 38.8Q30.8 44.56 29.74 50.65Q28.99 55 27.63 59.07Q27.2 60.35 26.77 61.45Q26.55 62 26.41 62.3L25.5 61.89Q25.63 61.61 25.84 61.08Q26.26 60.01 26.68 58.76Q28.02 54.75 28.76 50.48Q29.8 44.5 29.5 38.85Q29.13 31.8 26.7 25.67Q25.98 23.87 25.07 22.17Q22.89 18.1 19.61 14.63Q15.87 10.69 10.88 7.68Q8.92 6.5 6.83 5.5Q5.16 4.71 3.48 4.07Q2.49 3.69 1.59 3.4Z" fill="#313030" fill-opacity="1.000000" fill-rule="evenodd"/>
</svg>
