<svg width="30" height="30" viewBox="0 0 30 30" fill="none" xmlns="http://www.w3.org/2000/svg">
<g clip-path="url(#clip0_5_463)">
<path d="M4.6991 12.386H0V30H4.6991V12.386Z" fill="#1E1E1E"/>
<path d="M21.5655 12.386H16.8683V30H21.5655V12.386Z" fill="#1E1E1E"/>
<path d="M30 8.4317H25.3015V30H30V8.4317Z" fill="#1E1E1E"/>
<path d="M13.1317 18.018H8.43445V30H13.1317V18.018Z" fill="#1E1E1E"/>
<path d="M2.34863 7.35812C2.7539 7.35812 3.08288 7.00636 3.08288 6.57223C3.08288 6.1394 2.7539 5.78764 2.34863 5.78764C1.94396 5.78764 1.61621 6.1394 1.61621 6.57223C1.61621 7.00636 1.94396 7.35812 2.34863 7.35812Z" fill="#1E1E1E"/>
<path d="M2.34864 9.08815C3.64441 9.08815 4.6991 7.96095 4.6991 6.57223C4.6991 5.18482 3.64441 4.05632 2.34864 4.05632C1.05408 4.05632 0 5.18482 0 6.57223C0 7.96095 1.05408 9.08815 2.34864 9.08815ZM2.34864 5.10375C3.10486 5.10375 3.7207 5.7628 3.7207 6.57223C3.7207 7.38297 3.10486 8.04202 2.34864 8.04202C1.5924 8.04202 0.978401 7.38297 0.978401 6.57223C0.978401 5.7628 1.5924 5.10375 2.34864 5.10375Z" fill="#1E1E1E"/>
<path d="M10.7831 12.6894C10.379 12.6894 10.0507 13.0411 10.0507 13.474C10.0507 13.9081 10.379 14.2599 10.7831 14.2599C11.1871 14.2599 11.5167 13.9081 11.5167 13.474C11.5167 13.0411 11.1871 12.6894 10.7831 12.6894Z" fill="#1E1E1E"/>
<path d="M10.7831 10.9568C9.48729 10.9568 8.43445 12.0852 8.43445 13.474C8.43445 14.8614 9.48729 15.9899 10.7831 15.9899C12.0782 15.9899 13.1317 14.8614 13.1317 13.474C13.1317 12.0852 12.0782 10.9568 10.7831 10.9568ZM10.7831 14.9425C10.0275 14.9425 9.41222 14.2847 9.41222 13.474C9.41222 12.6645 10.0275 12.0055 10.7831 12.0055C11.5381 12.0055 12.1539 12.6645 12.1539 13.474C12.1539 14.2847 11.5381 14.9425 10.7831 14.9425Z" fill="#1E1E1E"/>
<path d="M19.2169 3.92294C18.8122 3.92294 18.4833 4.2747 18.4833 4.70883C18.4833 5.14297 18.8122 5.49473 19.2169 5.49473C19.6222 5.49473 19.9499 5.14297 19.9499 4.70883C19.9499 4.2747 19.6222 3.92294 19.2169 3.92294Z" fill="#1E1E1E"/>
<path d="M19.2169 2.19293C17.9211 2.19293 16.8683 3.32143 16.8683 4.70752C16.8683 6.09624 17.9211 7.22474 19.2169 7.22474C20.5115 7.22474 21.5655 6.09624 21.5655 4.70752C21.5655 3.32143 20.5115 2.19293 19.2169 2.19293ZM19.2169 6.17732C18.4607 6.17732 17.8454 5.51827 17.8454 4.70752C17.8454 3.89809 18.4607 3.24035 19.2169 3.24035C19.9725 3.24035 20.589 3.89809 20.589 4.70752C20.589 5.51827 19.9725 6.17732 19.2169 6.17732Z" fill="#1E1E1E"/>
<path d="M4.76074 7.82757C4.56056 8.26694 4.26087 8.64354 3.89099 8.92338L8.23303 12.5782C8.3783 12.1088 8.63282 11.693 8.96485 11.3648L4.76074 7.82757Z" fill="#1E1E1E"/>
<path d="M16.991 6.31332L12.3212 11.1202C12.6923 11.4001 12.9932 11.7767 13.1934 12.216L17.9993 7.2679C17.5928 7.04559 17.2443 6.71607 16.991 6.31332Z" fill="#1E1E1E"/>
<path d="M26.8457 3.01544L27.2931 4.54538L29.9591 1.15597L25.965 0L26.4441 1.64241L21.579 3.34364C21.7853 3.75033 21.9025 4.21454 21.9025 4.70752C21.9025 4.7206 21.9006 4.73369 21.9006 4.74545L26.8457 3.01544Z" fill="#1E1E1E"/>
</g>
<defs>
<clipPath id="clip0_5_463">
<rect width="30" height="30" fill="white"/>
</clipPath>
</defs>
</svg>
