<svg width="20" height="27" viewBox="0 0 20 27" fill="none" xmlns="http://www.w3.org/2000/svg">
<path d="M17.5139 7.11834V25.2351C17.5139 26.0789 16.8282 26.7738 15.9955 26.7738H4.21591C3.38325 26.7738 2.69754 26.0789 2.69754 25.2351V7.11834H17.5139ZM13.669 9.12856V24.714H14.5506V9.12856H13.669ZM9.67713 9.12856V24.714H10.5588V9.12856H9.67713ZM5.6853 9.12856V24.714H6.56693V9.12856H5.6853ZM6.66489 2.92418V1.63367C6.66489 0.81469 7.30162 0.169434 8.10979 0.169434H12.1261C12.9343 0.169434 13.571 0.81469 13.571 1.63367V2.92418H18.0037C18.8363 2.92418 19.522 3.61907 19.522 4.46286V5.53002H0.713867V4.43805C0.713867 3.59425 1.39958 2.89936 2.23223 2.89936H6.66489V2.92418ZM8.10979 1.16213C7.86489 1.16213 7.66897 1.36067 7.66897 1.60885V2.89936H12.5914V1.60885C12.5914 1.36067 12.3955 1.16213 12.1506 1.16213H8.10979Z" fill="black"/>
</svg>
