<svg width="16" height="14" viewBox="0 0 16 14" fill="none" xmlns="http://www.w3.org/2000/svg">
<path d="M14.75 2.9375H5.1875C5.03832 2.9375 4.89524 2.88482 4.78975 2.79105C4.68426 2.69729 4.625 2.57011 4.625 2.4375C4.625 2.30489 4.68426 2.17771 4.78975 2.08395C4.89524 1.99018 5.03832 1.9375 5.1875 1.9375H14.75C14.8992 1.9375 15.0423 1.99018 15.1477 2.08395C15.2532 2.17771 15.3125 2.30489 15.3125 2.4375C15.3125 2.57011 15.2532 2.69729 15.1477 2.79105C15.0423 2.88482 14.8992 2.9375 14.75 2.9375Z" fill="black"/>
<path d="M2.9375 2.9375H1.25C1.10082 2.9375 0.957742 2.88482 0.852252 2.79105C0.746763 2.69729 0.6875 2.57011 0.6875 2.4375C0.6875 2.30489 0.746763 2.17771 0.852252 2.08395C0.957742 1.99018 1.10082 1.9375 1.25 1.9375H2.9375C3.08668 1.9375 3.22976 1.99018 3.33525 2.08395C3.44074 2.17771 3.5 2.30489 3.5 2.4375C3.5 2.57011 3.44074 2.69729 3.33525 2.79105C3.22976 2.88482 3.08668 2.9375 2.9375 2.9375Z" fill="black"/>
<path d="M10.8125 7.4375H1.25C1.10082 7.4375 0.957742 7.38482 0.852252 7.29105C0.746763 7.19729 0.6875 7.07011 0.6875 6.9375C0.6875 6.80489 0.746763 6.67771 0.852252 6.58395C0.957742 6.49018 1.10082 6.4375 1.25 6.4375H10.8125C10.9617 6.4375 11.1048 6.49018 11.2102 6.58395C11.3157 6.67771 11.375 6.80489 11.375 6.9375C11.375 7.07011 11.3157 7.19729 11.2102 7.29105C11.1048 7.38482 10.9617 7.4375 10.8125 7.4375Z" fill="black"/>
<path d="M5.1875 11.9375H1.25C1.10082 11.9375 0.957742 11.8848 0.852252 11.7911C0.746763 11.6973 0.6875 11.5701 0.6875 11.4375C0.6875 11.3049 0.746763 11.1777 0.852252 11.0839C0.957742 10.9902 1.10082 10.9375 1.25 10.9375H5.1875C5.33668 10.9375 5.47976 10.9902 5.58525 11.0839C5.69074 11.1777 5.75 11.3049 5.75 11.4375C5.75 11.5701 5.69074 11.6973 5.58525 11.7911C5.47976 11.8848 5.33668 11.9375 5.1875 11.9375Z" fill="black"/>
<path d="M4.0625 4.0125C3.72874 4.0125 3.40248 3.91866 3.12498 3.74285C2.84747 3.56704 2.63118 3.31716 2.50345 3.02479C2.37573 2.73243 2.34231 2.41073 2.40743 2.10036C2.47254 1.78999 2.63326 1.50489 2.86926 1.28113C3.10526 1.05737 3.40594 0.904981 3.73329 0.843244C4.06063 0.781508 4.39993 0.813193 4.70828 0.934293C5.01663 1.05539 5.28018 1.26047 5.46561 1.52359C5.65103 1.78671 5.75 2.09605 5.75 2.4125C5.75 2.83685 5.57221 3.24381 5.25574 3.54387C4.93928 3.84393 4.51005 4.0125 4.0625 4.0125ZM4.0625 1.87917C3.95125 1.87917 3.84249 1.91045 3.74999 1.96905C3.65749 2.02765 3.58539 2.11095 3.54282 2.2084C3.50024 2.30586 3.4891 2.41309 3.51081 2.51655C3.53251 2.62001 3.58609 2.71504 3.66475 2.78962C3.74342 2.86421 3.84365 2.91501 3.95276 2.93559C4.06188 2.95616 4.17498 2.9456 4.27776 2.90524C4.38054 2.86487 4.46839 2.79651 4.5302 2.7088C4.59201 2.6211 4.625 2.51798 4.625 2.4125C4.625 2.27105 4.56574 2.1354 4.46025 2.03538C4.35476 1.93536 4.21168 1.87917 4.0625 1.87917Z" fill="black"/>
<path d="M11.9375 8.5125C11.6037 8.5125 11.2775 8.41866 11 8.24285C10.7225 8.06704 10.5062 7.81716 10.3785 7.52479C10.2507 7.23243 10.2173 6.91073 10.2824 6.60036C10.3475 6.28999 10.5083 6.00489 10.7443 5.78113C10.9803 5.55737 11.2809 5.40498 11.6083 5.34324C11.9356 5.28151 12.2749 5.31319 12.5833 5.43429C12.8916 5.55539 13.1552 5.76047 13.3406 6.02359C13.526 6.28671 13.625 6.59605 13.625 6.9125C13.625 7.33685 13.4472 7.74381 13.1307 8.04387C12.8143 8.34393 12.3851 8.5125 11.9375 8.5125ZM11.9375 6.37917C11.8262 6.37917 11.7175 6.41045 11.625 6.46905C11.5325 6.52765 11.4604 6.61095 11.4178 6.7084C11.3752 6.80586 11.3641 6.91309 11.3858 7.01655C11.4075 7.12001 11.4611 7.21504 11.5398 7.28962C11.6184 7.36421 11.7186 7.41501 11.8278 7.43559C11.9369 7.45616 12.05 7.4456 12.1528 7.40524C12.2555 7.36487 12.3434 7.29651 12.4052 7.2088C12.467 7.1211 12.5 7.01798 12.5 6.9125C12.5 6.77105 12.4407 6.6354 12.3352 6.53538C12.2298 6.43536 12.0867 6.37917 11.9375 6.37917Z" fill="black"/>
<path d="M6.3125 13.0125C5.97874 13.0125 5.65248 12.9187 5.37498 12.7429C5.09747 12.567 4.88118 12.3172 4.75345 12.0248C4.62573 11.7324 4.59231 11.4107 4.65743 11.1004C4.72254 10.79 4.88326 10.5049 5.11926 10.2811C5.35526 10.0574 5.65594 9.90498 5.98329 9.84324C6.31063 9.78151 6.64993 9.81319 6.95828 9.93429C7.26663 10.0554 7.53018 10.2605 7.71561 10.5236C7.90103 10.7867 8 11.0961 8 11.4125C8 11.8368 7.82221 12.2438 7.50574 12.5439C7.18928 12.8439 6.76005 13.0125 6.3125 13.0125ZM6.3125 10.8792C6.20125 10.8792 6.0925 10.9104 5.99999 10.969C5.90749 11.0277 5.83539 11.1109 5.79282 11.2084C5.75024 11.3059 5.7391 11.4131 5.76081 11.5165C5.78251 11.62 5.83609 11.715 5.91475 11.7896C5.99342 11.8642 6.09365 11.915 6.20276 11.9356C6.31188 11.9562 6.42498 11.9456 6.52776 11.9052C6.63054 11.8649 6.71839 11.7965 6.7802 11.7088C6.84201 11.6211 6.875 11.518 6.875 11.4125C6.875 11.2711 6.81574 11.1354 6.71025 11.0354C6.60476 10.9354 6.46169 10.8792 6.3125 10.8792Z" fill="black"/>
<path d="M14.75 7.4375H13.0625C12.9133 7.4375 12.7702 7.38482 12.6648 7.29105C12.5593 7.19729 12.5 7.07011 12.5 6.9375C12.5 6.80489 12.5593 6.67771 12.6648 6.58395C12.7702 6.49018 12.9133 6.4375 13.0625 6.4375H14.75C14.8992 6.4375 15.0423 6.49018 15.1477 6.58395C15.2532 6.67771 15.3125 6.80489 15.3125 6.9375C15.3125 7.07011 15.2532 7.19729 15.1477 7.29105C15.0423 7.38482 14.8992 7.4375 14.75 7.4375Z" fill="black"/>
<path d="M14.75 11.9375H7.4375C7.28832 11.9375 7.14524 11.8848 7.03975 11.7911C6.93426 11.6973 6.875 11.5701 6.875 11.4375C6.875 11.3049 6.93426 11.1777 7.03975 11.0839C7.14524 10.9902 7.28832 10.9375 7.4375 10.9375H14.75C14.8992 10.9375 15.0423 10.9902 15.1477 11.0839C15.2532 11.1777 15.3125 11.3049 15.3125 11.4375C15.3125 11.5701 15.2532 11.6973 15.1477 11.7911C15.0423 11.8848 14.8992 11.9375 14.75 11.9375Z" fill="black"/>
</svg>
