<svg width="20" height="30" viewBox="0 0 20 30" fill="none" xmlns="http://www.w3.org/2000/svg">
<path d="M16.3861 2.60715C14.6285 0.869031 12.4998 0 10 0C7.50028 0 5.37162 0.869031 3.61398 2.60715C1.85635 4.34527 0.977539 6.44465 0.977539 8.90533C0.977539 10.3895 1.72939 12.8698 3.23316 16.346C4.73693 19.8222 6.24065 22.9859 7.74442 25.8372C9.24819 28.6884 10 30.0751 10 29.9969C10.2344 29.5672 10.5566 28.9813 10.9667 28.2393C11.3769 27.4972 12.0994 26.1008 13.1345 24.0502C14.1696 21.9997 15.0777 20.1151 15.8588 18.3965C16.64 16.678 17.3626 14.9008 18.0266 13.0651C18.6905 11.2293 19.0225 9.84273 19.0225 8.90533C19.0225 6.44465 18.1437 4.34527 16.3861 2.60715ZM11.9334 10.7801C11.3866 11.3269 10.7324 11.6004 9.97075 11.6004C9.20911 11.6004 8.55486 11.3269 8.00806 10.7801C7.46126 10.2333 7.18783 9.57909 7.18783 8.81745C7.18783 8.05581 7.46126 7.41134 8.00806 6.88405C8.55486 6.35676 9.20911 6.09312 9.97075 6.09312C10.7324 6.09312 11.3866 6.35676 11.9334 6.88405C12.4802 7.41134 12.7537 8.05581 12.7537 8.81745C12.7537 9.57909 12.4802 10.2333 11.9334 10.7801Z" fill="white"/>
</svg>
