<svg width="30" height="30" viewBox="0 0 30 30" fill="none" xmlns="http://www.w3.org/2000/svg">
<path d="M29.865 23.9131L29.7157 23.4631C29.3621 22.4118 28.2029 21.3153 27.1379 21.0264L23.1966 19.9495C22.1278 19.6586 20.6031 20.0497 19.8211 20.8318L18.3946 22.2585C13.2106 20.8575 9.14552 16.7915 7.74661 11.6075L9.17312 10.1807C9.95513 9.39859 10.3461 7.87567 10.0553 6.80664L8.98055 2.86261C8.68976 1.79553 7.59144 0.63614 6.54228 0.286316L6.09237 0.135017C5.0412 -0.214807 3.54207 0.138979 2.76013 0.921068L0.626358 3.05718C0.245162 3.43643 0.00153107 4.52118 0.00153107 4.52514C-0.0730986 11.3009 2.58327 17.829 7.37528 22.622C12.1555 27.4031 18.658 30.0561 25.4128 29.9991C25.4482 29.9991 26.5642 29.7593 26.9454 29.38L29.0791 27.2458C29.8611 26.4638 30.2147 24.9645 29.865 23.9131Z" fill="white"/>
</svg>
