<?xml version="1.0" encoding="utf-8"?>
<!-- Generator: Adobe Illustrator 27.9.0, SVG Export Plug-In . SVG Version: 6.00 Build 0)  -->
<svg version="1.1" id="Layer_1" xmlns="http://www.w3.org/2000/svg" xmlns:xlink="http://www.w3.org/1999/xlink" x="0px" y="0px"
	 viewBox="0 0 841.89 595.28" style="enable-background:new 0 0 841.89 595.28;" xml:space="preserve">
<path d="M451.83,286.45c-0.48-0.85-0.83-1.57-1.27-2.22c-3.18-4.71-5.78-9.74-8.29-14.83c-24.12-49.02-48.26-98.02-72.39-147.03
	c-0.6-1.22-1.09-2.5-1.76-4.04c1.21-0.08,2-0.17,2.8-0.17c9.54,0,19.08-0.18,28.61,0.07c25.26,0.66,44.35,11.88,56.65,34.05
	c4.18,7.53,7.74,15.41,11.52,23.16c13.19,27.02,26.37,54.04,39.51,81.08c3.9,8.02,8.95,15.13,16.03,20.65
	c7.52,5.86,15.94,9.41,25.58,9.69c1.19,0.04,2.37,0.14,4.01,0.25c-0.65,0.7-0.87,1.03-1.17,1.26c-4.21,3.29-8.39,6.62-12.65,9.85
	c-8.78,6.67-18.73,10.58-29.62,11.84c-21.88,2.53-40.23-4.6-55.09-20.81c-0.39-0.42-0.79-0.83-1.35-1.41
	c-1.34,0.95-2.68,1.86-3.97,2.83c-3.74,2.82-7.38,5.79-11.2,8.49c-12.35,8.72-26.18,12.68-41.19,11.26
	c-23.01-2.18-40.13-13.67-50.76-34.24c-7.62-14.74-14.74-29.74-22.06-44.63c-17.87-36.34-35.74-72.69-53.61-109.03
	c-0.61-1.24-1.17-2.5-1.9-4.06c0.98-0.12,1.66-0.29,2.34-0.29c10.94,0.01,21.89-0.35,32.8,0.15c13.75,0.64,26.06,5.58,36.83,14.25
	c8.03,6.47,13.89,14.59,18.38,23.81c11.68,24.01,23.39,48,35.1,71.99c4.76,9.75,9.51,19.49,14.31,29.22
	c3.37,6.84,7.63,13.04,13.45,18.08c7.03,6.08,15.21,9.64,24.31,11.14C447.69,287.11,449.68,287.27,451.83,286.45z"/>
<path d="M459.44,118.21c30.94-0.64,61.89-0.95,93.36-0.68c-0.59,1.37-0.9,2.35-1.4,3.21c-6.37,11.02-12.78,22.02-19.17,33.02
	c-5.73,9.87-11.47,19.74-17.17,29.63c-1.4,2.43-3.11,4.44-5.89,5.29c-3.46,1.06-7.28-0.23-9.61-3.29c-0.64-0.84-1.16-1.79-1.66-2.73
	c-6.76-12.59-13.49-25.19-20.25-37.77c-1.71-3.18-3.47-6.33-5.24-9.49c-3.12-5.56-7.06-10.48-11.68-14.86
	c-0.57-0.54-1.07-1.14-1.6-1.72C459.23,118.61,459.34,118.41,459.44,118.21z"/>
<path d="M405.4,423.01c-5.95,11.59-13.92,15.65-24.45,12.77c-5.32-1.46-9.66-5.32-13.16-9.51c-2-2.39-3.82-4.94-5.62-7.49
	c-13.98-19.81-27.93-39.63-41.88-59.45c-0.55-0.79-1.96-3.08-2.72-4.22c2.09,0,4.54,0,6.26,0c2.77,0,5.12-0.17,7.62,0
	c4.49,0.38,8.7,0.5,12.65,2.77c4.87,2.81,8.67,6.71,11.87,11.29c8.46,12.13,16.95,24.25,25.46,36.35c2.22,3.16,4.41,6.36,6.86,9.33
	c3.43,4.17,7.72,7.13,13.21,7.93C402.75,422.96,404.06,422.93,405.4,423.01z"/>
<path d="M548.41,422.97c-5.95,11.59-13.92,15.65-24.45,12.77c-5.32-1.46-9.66-5.32-13.16-9.51c-2-2.39-3.82-4.94-5.62-7.49
	c-13.98-19.81-27.93-39.63-41.88-59.45c-0.55-0.79-1.96-3.08-2.72-4.22c2.09,0,4.54,0,6.26,0c2.77,0,5.12-0.17,7.62,0
	c4.49,0.38,8.7,0.5,12.65,2.77c4.87,2.81,8.67,6.71,11.87,11.29c8.46,12.13,16.95,24.25,25.46,36.35c2.22,3.16,4.41,6.36,6.86,9.33
	c3.43,4.17,7.72,7.13,13.21,7.93C545.76,422.92,547.07,422.89,548.41,422.97z"/>
<path d="M359.96,423.01c-5.95,11.59-13.92,15.65-24.45,12.77c-5.32-1.46-9.66-5.32-13.16-9.51c-2-2.39-3.82-4.94-5.62-7.49
	c-13.98-19.81-27.93-39.63-41.88-59.45c-0.55-0.79-1.96-3.08-2.72-4.22c2.09,0,4.54,0,6.26,0c2.77,0,5.12-0.17,7.62,0
	c4.49,0.38,8.7,0.5,12.65,2.77c4.87,2.81,8.67,6.71,11.87,11.29c8.46,12.13,16.95,24.25,25.46,36.35c2.22,3.16,4.41,6.36,6.86,9.33
	c3.43,4.17,7.72,7.13,13.21,7.93C357.31,422.96,358.62,422.93,359.96,423.01z"/>
<path d="M446.05,436.76c-1.82-0.28-3.35-0.48-4.86-0.76c-1.93-0.36-3.83-0.84-5.77-1.19c-7.86-1.41-12.26-6.16-14.17-13.16
	c-0.54-1.99-0.69-4.12-0.7-6.19c-0.07-19.31-0.07-38.62-0.08-57.93c0-0.83,0.11-1.65,0.19-2.68c5.22,1.02,10.3,1.57,15,3.46
	c5.32,2.14,8.2,6.32,9.52,11.41c0.62,2.37,0.87,4.89,0.89,7.34c0.1,19,0.09,38,0.11,57C446.2,434.83,446.12,435.59,446.05,436.76z"
	/>
<path d="M586.32,436.76c-1.82-0.28-3.35-0.48-4.86-0.76c-1.93-0.36-3.83-0.84-5.77-1.19c-7.86-1.41-12.26-6.16-14.17-13.16
	c-0.54-1.99-0.69-4.12-0.7-6.19c-0.07-19.31-0.07-38.62-0.08-57.93c0-0.83,0.11-1.65,0.19-2.68c5.22,1.02,10.3,1.57,15,3.46
	c5.32,2.14,8.2,6.32,9.52,11.41c0.62,2.37,0.87,4.89,0.89,7.34c0.1,19,0.09,38,0.11,57C586.47,434.83,586.39,435.59,586.32,436.76z"
	/>
<path d="M358.3,355.03c2.28,0,30.65,0,37.24,0c-0.21,0.64-0.31,1.48-0.59,2.01c-3.65,7.08-7.28,14.18-10.99,21.22
	c-1.86,3.53-4.92,3.88-7.48,0.79c-2.31-2.78-4.38-5.75-6.54-8.65c-2.75-3.69-5.44-7.42-8.24-11.07
	C360.71,358.07,359.47,356.25,358.3,355.03z"/>
<path d="M502.23,355.03c2.17,0,31.32-0.04,37.67,0c-0.27,0.61-0.6,1.44-0.88,1.97c-3.65,7.09-7.28,14.18-10.99,21.23
	c-1.87,3.53-4.91,3.88-7.48,0.81c-2.16-2.58-4.12-5.33-6.11-8.04c-2.29-3.11-4.45-6.32-6.8-9.38
	C506.06,359.55,503.96,357,502.23,355.03z"/>
<path d="M465.94,436.76c0.29-0.73,0.49-1.41,0.81-2.03c3.53-6.85,7.08-13.69,10.63-20.53c0.23-0.44,0.44-0.89,0.73-1.28
	c1.58-2.2,4.18-2.53,6.17-0.67c1.07,1,2,2.17,2.87,3.36c3.1,4.24,6.06,8.58,9.23,12.76c1.93,2.54,4.15,4.84,6.24,7.26
	c0.2,0.23,0.37,0.49,0.84,1.13C490.79,436.76,478.49,436.76,465.94,436.76z"/>
</svg>
