<svg width="316" height="304" viewBox="0 0 316 304" fill="none" xmlns="http://www.w3.org/2000/svg">
<path fill-rule="evenodd" clip-rule="evenodd" d="M76.4361 31.7574C46.9413 16.9709 33.2226 42.148 31.2538 59.9553C29.8788 72.4084 31.0663 88.4136 34.1392 106.216H41.7069C35.3163 59.1167 43.6705 27.0699 76.4361 31.7574ZM60.3424 197.476C69.7538 221.799 80.5038 244.492 91.2017 261.908C81.5872 240.815 72.759 218.955 65.233 197.476H60.3424Z" fill="#D9D9D9"/>
<path fill-rule="evenodd" clip-rule="evenodd" d="M8.61315 99.5074C2.17565 56.8303 5.79023 20.8355 28.4413 8.10115C99.5038 -31.8416 135.764 90.6428 214.598 57.4709C151.217 107.461 74.634 -20.4457 31.6288 28.3251C17.5663 44.2678 17.1027 73.4293 23.259 106.216H9.51419L8.61315 99.5074ZM300.321 106.216H284.327C286.967 90.3251 288.181 74.6793 287.259 59.997C285.483 31.5022 263.118 14.6064 234.321 31.4814C213.946 43.4241 193.196 58.8928 147.019 42.8355C213.858 58.1637 232.962 -8.3051 280.561 12.9761C303.348 23.1637 306.894 64.3772 300.321 106.216ZM257.613 197.476H270.514C256.879 232.091 241.103 269.461 228.488 287.2C215.004 306.164 191.301 312.362 186.696 285.882C180.571 250.669 182.592 225.872 140.212 234.372C177.592 215.325 192.295 238.731 195.15 277.763C196.79 300.148 216.556 293.711 230.071 262.028C235.884 248.419 246.821 225.138 257.613 197.476ZM37.9413 197.476H51.2486C62.6392 226.283 74.259 250.799 80.7434 263.653C93.7173 289.372 108.103 295.112 109.848 272.752C113.577 225.065 144.285 208.117 184.681 224.591C144.337 215.039 125.394 235.309 121.733 266.992C117.832 300.794 99.9204 316.893 78.2798 285.58C65.8632 267.606 50.9829 231.112 37.9413 197.476Z" fill="#077C8F"/>
<path d="M14.3958 186.347C9.21354 186.347 4.54688 185.488 0.395833 183.764V170.347H0.729167C3.53125 173.571 5.98438 175.805 8.08333 177.055C10.1771 178.295 12.6042 178.91 15.3542 178.91C18.2708 178.91 20.7188 177.982 22.7083 176.118C24.7083 174.258 25.7083 171.925 25.7083 169.118C25.7083 167.566 25.3385 166.139 24.6042 164.847C23.8802 163.555 22.6146 162.222 20.8125 160.847C19.0052 159.472 16.4375 157.842 13.1042 155.951C8.29688 153.258 4.90625 150.503 2.9375 147.68C0.979167 144.847 0 141.41 0 137.368C0 134.191 0.843749 131.149 2.54167 128.243C4.23438 125.326 6.61458 122.982 9.6875 121.201C12.7708 119.41 16.25 118.514 20.125 118.514C24.651 118.514 28.8542 119.488 32.7292 121.43V131.451L32.5 131.535C30.2917 129.592 28.2292 128.243 26.3125 127.493C24.3958 126.743 22.3333 126.368 20.125 126.368C18.026 126.368 16.1927 126.8 14.625 127.66C13.0677 128.524 11.8646 129.67 11.0208 131.097C10.1875 132.529 9.77083 134.05 9.77083 135.66C9.77083 138.149 10.6458 140.404 12.3958 142.43C14.1563 144.446 17.276 146.691 21.75 149.16C25.3021 151.16 28.1042 152.993 30.1458 154.66C32.1979 156.326 33.7188 158.191 34.7083 160.243C35.7083 162.285 36.2083 164.712 36.2083 167.514C36.2083 171.389 35.2344 174.758 33.2917 177.618C31.3594 180.467 28.7344 182.633 25.4167 184.118C22.1094 185.602 18.4375 186.347 14.3958 186.347Z" fill="#077C8F"/>
<path d="M57.7184 185.535C58.6871 182.675 59.3642 179.821 59.7392 176.972C60.1142 174.113 60.3017 170.633 60.3017 166.535V126.285C56.3694 126.285 52.6142 126.675 49.0309 127.451C45.4476 128.232 42.2236 129.321 39.3642 130.722L39.2184 130.576L42.5309 119.326H91.9892L87.4684 129.847C84.8851 128.597 82.2444 127.696 79.5517 127.139C76.8538 126.571 73.6455 126.285 69.9267 126.285V166.535C69.9267 170.524 70.1246 173.962 70.5309 176.847C70.9319 179.722 71.5934 182.618 72.5101 185.535H57.7184Z" fill="#077C8F"/>
<path d="M129.097 118.514C135.399 118.514 141.19 119.92 146.472 122.722C151.763 125.529 155.956 129.467 159.055 134.535C162.149 139.592 163.701 145.41 163.701 151.993C163.701 158.566 162.164 164.467 159.097 169.701C156.024 174.925 151.815 179.008 146.472 181.951C141.138 184.883 135.242 186.347 128.784 186.347C122.045 186.347 116.076 184.774 110.867 181.618C105.67 178.467 101.67 174.295 98.8675 169.097C96.0602 163.889 94.6591 158.347 94.6591 152.472C94.6591 146.337 96.18 140.67 99.2216 135.472C102.274 130.264 106.43 126.139 111.68 123.097C116.93 120.045 122.732 118.514 129.097 118.514ZM127.159 125.555C123.227 125.555 119.586 126.587 116.242 128.639C112.909 130.68 110.253 133.576 108.284 137.326C106.326 141.066 105.347 145.383 105.347 150.285C105.347 155.41 106.409 160.196 108.534 164.639C110.659 169.087 113.644 172.639 117.492 175.305C121.352 177.972 125.763 179.305 130.722 179.305C135.081 179.305 138.956 178.201 142.347 175.993C145.748 173.785 148.394 170.785 150.284 166.993C152.17 163.191 153.117 158.993 153.117 154.41C153.117 149.3 151.956 144.524 149.638 140.076C147.315 135.618 144.18 132.087 140.222 129.472C136.263 126.863 131.909 125.555 127.159 125.555Z" fill="#077C8F"/>
<path d="M245.025 119.576C242.983 122.107 241.634 124.425 240.983 126.535C240.327 128.633 240.004 131.488 240.004 135.097V166.535C240.004 170.524 240.202 173.962 240.608 176.847C241.025 179.722 241.691 182.618 242.608 185.535H227.816C228.775 182.675 229.441 179.821 229.816 176.972C230.202 174.113 230.4 170.633 230.4 166.535V136.951L207.525 165.243L184.795 137.201V166.535C184.795 170.524 184.993 173.962 185.4 176.847C185.816 179.722 186.483 182.618 187.4 185.535H172.608C173.566 182.675 174.233 179.821 174.608 176.972C174.993 174.113 175.191 170.633 175.191 166.535V126.451C173.134 123.857 170.972 121.566 168.712 119.576V119.326H183.358C184.051 121.008 184.858 122.576 185.775 124.035C186.691 125.482 188.035 127.279 189.816 129.43L207.608 151.43L227.4 126.847C229.551 124.212 231.196 121.701 232.337 119.326H245.025V119.576Z" fill="#077C8F"/>
<path d="M306.059 170.264C307.517 173.488 308.918 176.196 310.267 178.389C311.611 180.571 313.257 182.868 315.204 185.285V185.535H299.121C299.272 184.941 299.35 184.212 299.35 183.347C299.35 181.889 299.106 180.274 298.621 178.493C298.132 176.717 297.272 174.482 296.038 171.785L292.892 164.514H268.079L264.517 172.035C262.251 176.732 261.121 180.503 261.121 183.347C261.121 184.055 261.173 184.785 261.288 185.535H245.434V185.285C248.46 181.634 251.611 176.545 254.892 170.014L281.246 117.722H281.496L306.059 170.264ZM271.704 156.91H289.496L280.934 137.368L271.704 156.91Z" fill="#077C8F"/>
</svg>
