<svg width="495" height="690" viewBox="0 0 495 690" fill="none" xmlns="http://www.w3.org/2000/svg">
<rect width="495" height="690" fill="#C6C6C6"/>
<g clip-path="url(#clip0_2503_12)">
<path d="M248 270C206.75 270 173 303.75 173 345C173 386.25 206.75 420 248 420C289.25 420 323 386.25 323 345C323 303.75 289.25 270 248 270ZM248 275C266.473 275 283.331 282.255 295.875 294.053L276.733 313.038L271.25 299C271 298.25 270 297.5 269 297.5H227.5C226.5 297.5 225.75 298 225.25 299L219 315H204.75C199.75 315 195.75 319 195.75 324V373.5C195.75 378.5 199.75 382.5 204.75 382.5H206.699L196.662 392.455C185.095 379.957 178 363.268 178 345C178 306.5 209.5 275 248 275ZM265.5 345C265.5 354.75 257.75 362.5 248 362.5C244.026 362.5 240.386 361.212 237.466 359.027L262.112 334.582C264.245 337.482 265.5 341.079 265.5 345ZM230.5 345C230.5 335.25 238.25 327.5 248 327.5C252.003 327.5 255.668 328.809 258.599 331.024L233.936 355.485C231.773 352.574 230.5 348.951 230.5 345ZM262.172 327.48C258.313 324.363 253.39 322.5 248 322.5C235.5 322.5 225.5 332.5 225.5 345C225.5 350.323 227.318 355.189 230.366 359.026L211.74 377.5H204.5C202.25 377.5 200.5 375.75 200.5 373.5V324C200.5 321.75 202.25 320 204.5 320H220.5C221.5 320 222.5 319.25 222.75 318.5L229 302.5H267L272.685 317.053L262.172 327.48ZM233.893 362.571C237.742 365.657 242.64 367.5 248 367.5C260.5 367.5 270.5 357.5 270.5 345C270.5 339.707 268.702 334.866 265.685 331.039L276.814 320H291.25C293.5 320 295.25 321.75 295.25 324V373.5C295.25 375.75 293.5 377.5 291.25 377.5H218.841L233.893 362.571ZM248 415C229.556 415 212.722 407.768 200.185 396.003L213.799 382.5H291.5C296.5 382.5 300.5 378.5 300.75 373.5V324C300.75 319 296.75 315 291.75 315H281.855L299.394 297.605C310.928 310.097 318 326.761 318 345C318 383.5 286.5 415 248 415Z" fill="black"/>
<path d="M285.5 325C282.75 325 280.5 327.25 280.5 330C280.5 332.75 282.75 335 285.5 335C288.25 335 290.5 332.75 290.5 330C290.5 327.25 288.25 325 285.5 325Z" fill="black"/>
</g>
<defs>
<clipPath id="clip0_2503_12">
<rect width="150" height="150" fill="white" transform="translate(173 270)"/>
</clipPath>
</defs>
</svg>
