<svg width="12" height="12" viewBox="0 0 12 12" fill="none" xmlns="http://www.w3.org/2000/svg">
<path d="M5.86901 5.94934C7.14017 5.94934 8.17064 4.84139 8.17064 3.47467C8.17064 2.10795 7.14017 1 5.86901 1C4.59784 1 3.56737 2.10795 3.56737 3.47467C3.56737 4.84139 4.59784 5.94934 5.86901 5.94934Z" stroke="black" stroke-width="1.2" stroke-miterlimit="10"/>
<path d="M11 11C10.9899 10.8771 10.9758 10.7535 10.9576 10.6292C10.7652 9.32891 10.1374 8.1491 9.19236 7.31183C8.24731 6.47456 7.0502 6.03758 5.82638 6.08315C4.60256 6.12873 3.43643 6.65371 2.54753 7.55928C1.65862 8.46485 1.10824 9.68854 1 11H11Z" stroke="black" stroke-width="1.2" stroke-miterlimit="10"/>
</svg>
