<svg width="23" height="23" viewBox="0 0 23 23" fill="none" xmlns="http://www.w3.org/2000/svg">
<path d="M1.0567 5.44096C2.2823 9.01433 4.23817 12.278 6.79337 15.0134C9.7094 18.1188 13.3341 20.43 17.3398 21.7383M12.0257 6.85975C12.365 6.69105 12.7423 6.61896 13.1181 6.65101C13.4939 6.68307 13.8544 6.81809 14.1618 7.04196C14.8804 7.58455 15.1802 8.58735 14.8738 9.50642M11.9565 4.68732C13.21 4.08443 14.6713 4.20233 15.7452 5.01154C17.0256 5.97414 17.554 7.75801 17.0092 9.3858M1.55313 3.63527L3.5698 1.56722C4.3073 0.810928 5.50303 0.810927 6.24053 1.56722L9.06923 4.46798C9.80673 5.22427 9.80673 6.45046 9.06923 7.20675L7.05256 9.27479C6.31505 10.0311 5.11933 10.0311 4.38183 9.27479L1.55313 6.37403C0.815624 5.61774 0.815625 4.39156 1.55313 3.63527ZM13.7542 16.2197L15.5694 13.9639C16.2333 13.139 17.4235 13.0221 18.228 13.7029L21.3134 16.3139C22.1179 16.9946 22.2319 18.2153 21.568 19.0402L19.7528 21.296C19.0889 22.1209 17.8987 22.2378 17.0942 21.557L14.0088 18.946C13.2043 18.2652 13.0903 17.0446 13.7542 16.2197Z" stroke="black" stroke-width="1.62627" stroke-miterlimit="10"/>
</svg>
