<svg width="30" height="30" viewBox="0 0 30 30" fill="none" xmlns="http://www.w3.org/2000/svg">
<path d="M5.70558 1.87416L2.83482 5.89219C2.80072 5.93995 2.78043 5.99619 2.77617 6.05473C2.77192 6.11326 2.78386 6.17184 2.81069 6.22404C2.83752 6.27624 2.87821 6.32004 2.92829 6.35065C2.97837 6.38125 3.03591 6.39748 3.0946 6.39755L11.2096 6.40533L14.6106 1.60922H6.22032C6.11963 1.60924 6.0204 1.6333 5.93088 1.67938C5.84136 1.72545 5.76412 1.79223 5.70558 1.87416Z" fill="#1E1E1E"/>
<path d="M27.0525 5.91862L24.1629 1.87416C24.1044 1.79221 24.0271 1.72543 23.9375 1.67935C23.848 1.63327 23.7487 1.60923 23.648 1.60922H15.2625L18.6532 6.4162L26.792 6.42398C26.8507 6.42406 26.9084 6.40794 26.9586 6.37739C27.0088 6.34684 27.0496 6.30304 27.0765 6.25082C27.1034 6.19859 27.1154 6.13995 27.1112 6.08134C27.1069 6.02274 27.0866 5.96644 27.0525 5.91862Z" fill="#1E1E1E"/>
<path d="M17.8078 7.41347L15.5672 4.23703V14.0192H23.648C23.8655 14.0192 24.0742 13.9328 24.228 13.779C24.3819 13.6251 24.4683 13.4165 24.4683 13.1989V7.6875L18.3242 7.68159C18.2229 7.68139 18.1232 7.65694 18.0334 7.61029C17.9436 7.56364 17.8662 7.49615 17.8078 7.41347Z" fill="#1E1E1E"/>
<path d="M11.5364 7.67142H11.5355L5.39999 7.67644V13.1989C5.39999 13.4165 5.48642 13.6251 5.64026 13.779C5.7941 13.9328 6.00275 14.0192 6.22031 14.0192H14.3016V4.23281L12.0525 7.40442C11.994 7.48686 11.9167 7.55411 11.8269 7.60056C11.7371 7.64701 11.6375 7.6713 11.5364 7.67142Z" fill="#1E1E1E"/>
<path d="M7.08057 17.4141H4.00646C3.94223 17.4141 3.87864 17.4267 3.8193 17.4513C3.75997 17.4759 3.70606 17.5119 3.66065 17.5573C3.61524 17.6027 3.57922 17.6567 3.55465 17.716C3.53008 17.7753 3.51744 17.8389 3.51746 17.9032V28.3946C3.51744 28.5243 3.56895 28.6487 3.66066 28.7404C3.75236 28.8321 3.87675 28.8837 4.00646 28.8837H7.08057C7.22059 28.8837 7.35924 28.8562 7.48861 28.8026C7.61798 28.7491 7.73553 28.6705 7.83455 28.5715C7.93357 28.4725 8.01212 28.355 8.06571 28.2256C8.1193 28.0963 8.14688 27.9576 8.14688 27.8176V18.4801C8.14687 18.3401 8.11927 18.2014 8.06568 18.0721C8.01208 17.9427 7.93354 17.8252 7.83452 17.7262C7.7355 17.6272 7.61795 17.5487 7.48859 17.4952C7.35923 17.4416 7.22058 17.414 7.08057 17.4141Z" fill="#1E1E1E"/>
<path d="M26.4037 18.6461C26.2412 18.3986 26.0197 18.1955 25.7591 18.0551C25.4984 17.9147 25.207 17.8414 24.9109 17.8418H23.7063C23.1894 17.8407 22.6839 17.9936 22.2543 18.2811C21.8247 18.5685 21.4905 18.9774 21.2943 19.4556C21.1779 19.7337 21.0157 19.9902 20.8144 20.2146C20.4722 20.7399 20.0092 21.1757 19.4641 21.4855C18.919 21.7953 18.3077 21.9701 17.6813 21.9953L14.113 21.9955C13.9452 21.9955 13.7842 21.9289 13.6655 21.8102C13.5469 21.6915 13.4802 21.5306 13.4802 21.3627C13.4802 21.1949 13.5469 21.0339 13.6655 20.9153C13.7842 20.7966 13.9452 20.7299 14.113 20.7299H17.6643C18.1206 20.7182 18.5639 20.5756 18.9414 20.319V20.2975C18.9426 19.9755 18.8803 19.6564 18.7579 19.3585C18.6355 19.0607 18.4556 18.7899 18.2283 18.5617C18.0011 18.3336 17.731 18.1525 17.4336 18.029C17.1362 17.9054 16.8174 17.8418 16.4953 17.8418H13.8769C13.3984 17.8404 12.9244 17.9338 12.4822 18.1164C12.0399 18.2991 11.6382 18.5675 11.3002 18.9061L11.2333 18.9727C10.7379 19.4674 10.1017 19.7969 9.41187 19.9161V26.9057H18.961C20.3768 26.9066 21.7617 26.4919 22.9441 25.7131C24.1265 24.9343 25.0543 23.8256 25.6125 22.5245L26.5532 20.335C26.6705 20.0632 26.7183 19.7665 26.6922 19.4716C26.6661 19.1768 26.5669 18.893 26.4037 18.6461Z" fill="#1E1E1E"/>
</svg>
