<svg width="27" height="27" viewBox="0 0 27 27" fill="none" xmlns="http://www.w3.org/2000/svg">
<path d="M3.51506 15.1875H0.104625H0V23.625L2.49919 21.3283C4.94775 24.7607 8.96231 27 13.5 27C20.385 27 26.0651 21.8464 26.8954 15.1875H23.4849C22.6817 19.9766 18.5169 23.625 13.5 23.625C9.94613 23.625 6.8175 21.7924 5.01188 19.0198L9.18169 15.1875H3.51506Z" fill="white"/>
<path d="M13.5 0C6.61499 0 0.934864 5.15363 0.104614 11.8125H3.51505C4.3183 7.02338 8.48305 3.375 13.5 3.375C17.1602 3.375 20.3681 5.31731 22.1467 8.22825L18.5625 11.8125H21.9375H23.4849H26.8954H27V3.375L24.5835 5.7915C22.1451 2.28994 18.09 0 13.5 0Z" fill="white"/>
</svg>
