<svg width="30" height="30" viewBox="0 0 30 30" fill="none" xmlns="http://www.w3.org/2000/svg">
<path d="M15.48 12C15.35 12.004 15.225 12.058 15.133 12.152L12.495 14.782L10.87 13.162C10.415 12.688 9.68 13.42 10.155 13.874L12.138 15.852C12.335 16.049 12.655 16.049 12.853 15.852L15.848 12.865C16.178 12.545 15.935 12 15.481 12H15.48ZM0.5 16H3.5C3.777 16 4 16.223 4 16.5C4 16.777 3.777 17 3.5 17H0.5C0.223 17 0 16.777 0 16.5C0 16.223 0.223 16 0.5 16ZM0.5 12H3.5C3.777 12 4 12.223 4 12.5C4 12.777 3.777 13 3.5 13H0.5C0.223 13 0 12.777 0 12.5C0 12.223 0.223 12 0.5 12ZM0.5 8H3.5C3.777 8 4 8.223 4 8.5C4 8.777 3.777 9 3.5 9H0.5C0.223 9 0 8.777 0 8.5C0 8.223 0.223 8 0.5 8ZM24.5 19C23.125 19 22 20.125 22 21.5C22 22.875 23.125 24 24.5 24C25.875 24 27 22.875 27 21.5C27 20.125 25.875 19 24.5 19ZM24.5 20C25.334 20 26 20.666 26 21.5C26 22.334 25.334 23 24.5 23C23.666 23 23 22.334 23 21.5C23 20.666 23.666 20 24.5 20ZM11.5 19C10.125 19 9 20.125 9 21.5C9 22.875 10.125 24 11.5 24C12.875 24 14 22.875 14 21.5C14 20.125 12.875 19 11.5 19ZM11.5 20C12.334 20 13 20.666 13 21.5C13 22.334 12.334 23 11.5 23C10.666 23 10 22.334 10 21.5C10 20.666 10.666 20 11.5 20ZM6.5 6C5.678 6 5 6.678 5 7.5V18.5C5 19.322 5.678 20 6.5 20H8.5C9.176 20.01 9.176 18.99 8.5 19H6.5C6.214 19 6 18.786 6 18.5V7.5C6 7.214 6.214 7 6.5 7H19.5C19.786 7 20 7.214 20 7.5V19H14.5C13.84 19 13.852 20.01 14.5 20H21.5C22.16 20 22.154 19 21.5 19H21V10H25.227L29 15.896V18.5C29 18.786 28.786 19 28.5 19H27.5C26.846 19 26.846 20 27.5 20H28.5C29.322 20 30 19.322 30 18.5V15.75C30 15.655 29.973 15.56 29.922 15.48L25.922 9.23C25.83 9.087 25.672 9 25.5 9H21V7.5C21 6.678 20.322 6 19.5 6H6.5Z" fill="#8F8D8D"/>
</svg>
