<svg width="30" height="30" viewBox="0 0 30 30" fill="none" xmlns="http://www.w3.org/2000/svg">
<path d="M14.9238 15H27.1113" stroke="#8F8D8D" stroke-width="2" stroke-linecap="round" stroke-linejoin="round"/>
<path d="M22.4336 23.4375V26.25H7.43359V3.75H22.4336V6.5625H24.3086V2.8125C24.3086 2.56386 24.2098 2.3254 24.034 2.14959C23.8582 1.97377 23.6197 1.875 23.3711 1.875H6.49609C6.24745 1.875 6.009 1.97377 5.83318 2.14959C5.65737 2.3254 5.55859 2.56386 5.55859 2.8125V27.1875C5.55859 27.4361 5.65737 27.6746 5.83318 27.8504C6.009 28.0262 6.24745 28.125 6.49609 28.125H23.3711C23.6197 28.125 23.8582 28.0262 24.034 27.8504C24.2098 27.6746 24.3086 27.4361 24.3086 27.1875V23.4375H22.4336Z" fill="#8F8D8D"/>
<path d="M27.1113 15L23.3613 18.75" stroke="#8F8D8D" stroke-width="2" stroke-linecap="round" stroke-linejoin="round"/>
<path d="M27.1113 15L23.3613 11.25" stroke="#8F8D8D" stroke-width="2" stroke-linecap="round" stroke-linejoin="round"/>
<path d="M23.3613 7.58447V5.70947" stroke="#8F8D8D" stroke-width="2" stroke-linecap="round" stroke-linejoin="round"/>
<path d="M23.3613 24.375V22.5" stroke="#8F8D8D" stroke-width="2" stroke-linecap="round" stroke-linejoin="round"/>
</svg>
