<svg width="30" height="30" viewBox="0 0 30 30" fill="none" xmlns="http://www.w3.org/2000/svg">
<path d="M20 1.875C20.1658 1.875 20.3247 1.94085 20.4419 2.05806C20.5592 2.17527 20.625 2.33424 20.625 2.5V3.125H22.5C22.9661 3.12502 23.4155 3.29865 23.7605 3.61202C24.1056 3.9254 24.3215 4.35605 24.3662 4.82L24.375 5V25C24.375 25.4661 24.2014 25.9155 23.888 26.2605C23.5746 26.6056 23.1439 26.8215 22.68 26.8662L22.5 26.875H7.5C7.0339 26.875 6.58451 26.7014 6.23948 26.388C5.89444 26.0746 5.6785 25.6439 5.63375 25.18L5.625 25V5C5.62502 4.5339 5.79865 4.08451 6.11202 3.73948C6.4254 3.39444 6.85605 3.1785 7.32 3.13375L7.5 3.125H9.375V2.5C9.37495 2.35372 9.42621 2.21205 9.51986 2.09968C9.61351 1.9873 9.74361 1.91133 9.8875 1.885L10 1.875H20ZM9.375 4.375H7.5C7.35372 4.37495 7.21205 4.42621 7.09968 4.51986C6.9873 4.61351 6.91133 4.74361 6.885 4.8875L6.875 5V25C6.87495 25.1463 6.92621 25.2879 7.01986 25.4003C7.11351 25.5127 7.24361 25.5887 7.3875 25.615L7.5 25.625H22.5C22.6463 25.625 22.7879 25.5738 22.9003 25.4801C23.0127 25.3865 23.0887 25.2564 23.115 25.1125L23.125 25V5C23.125 4.85372 23.0738 4.71205 22.9801 4.59968C22.8865 4.4873 22.7564 4.41133 22.6125 4.385L22.5 4.375H20.625V5C20.625 5.14628 20.5738 5.28795 20.4801 5.40032C20.3865 5.5127 20.2564 5.58867 20.1125 5.615L20 5.625H10C9.83424 5.625 9.67527 5.55915 9.55806 5.44194C9.44085 5.32473 9.375 5.16576 9.375 5V4.375ZM20.625 20C20.7908 20 20.9497 20.0658 21.0669 20.1831C21.1842 20.3003 21.25 20.4592 21.25 20.625C21.25 20.7908 21.1842 20.9497 21.0669 21.0669C20.9497 21.1842 20.7908 21.25 20.625 21.25H9.375C9.20924 21.25 9.05027 21.1842 8.93306 21.0669C8.81585 20.9497 8.75 20.7908 8.75 20.625C8.75 20.4592 8.81585 20.3003 8.93306 20.1831C9.05027 20.0658 9.20924 20 9.375 20H20.625ZM20.625 15C20.7908 15 20.9497 15.0658 21.0669 15.1831C21.1842 15.3003 21.25 15.4592 21.25 15.625C21.25 15.7908 21.1842 15.9497 21.0669 16.0669C20.9497 16.1842 20.7908 16.25 20.625 16.25H9.375C9.20924 16.25 9.05027 16.1842 8.93306 16.0669C8.81585 15.9497 8.75 15.7908 8.75 15.625C8.75 15.4592 8.81585 15.3003 8.93306 15.1831C9.05027 15.0658 9.20924 15 9.375 15H20.625ZM20.625 10C20.7908 10 20.9497 10.0658 21.0669 10.1831C21.1842 10.3003 21.25 10.4592 21.25 10.625C21.25 10.7908 21.1842 10.9497 21.0669 11.0669C20.9497 11.1842 20.7908 11.25 20.625 11.25H9.375C9.20924 11.25 9.05027 11.1842 8.93306 11.0669C8.81585 10.9497 8.75 10.7908 8.75 10.625C8.75 10.4592 8.81585 10.3003 8.93306 10.1831C9.05027 10.0658 9.20924 10 9.375 10H20.625ZM19.375 3.125H10.625V4.375H19.375V3.125Z" fill="#8F8D8D"/>
</svg>
