<?xml version="1.0" encoding="UTF-8" standalone="no"?>
<svg
   xmlns:dc="http://purl.org/dc/elements/1.1/"
   xmlns:cc="http://creativecommons.org/ns#"
   xmlns:rdf="http://www.w3.org/1999/02/22-rdf-syntax-ns#"
   xmlns:svg="http://www.w3.org/2000/svg"
   xmlns="http://www.w3.org/2000/svg"
   viewBox="0 0 424.25333 425.77332"
   height="425.77332"
   width="424.25333"
   xml:space="preserve"
   id="svg2"
   version="1.1"><metadata
     id="metadata8"><rdf:RDF><cc:Work
         rdf:about=""><dc:format>image/svg+xml</dc:format><dc:type
           rdf:resource="http://purl.org/dc/dcmitype/StillImage" /></cc:Work></rdf:RDF></metadata><defs
     id="defs6" /><g
     transform="matrix(1.3333333,0,0,-1.3333333,0,425.77333)"
     id="g10"><g
       transform="scale(0.1)"
       id="g12"><path
         id="path14"
         style="fill:#231f20;fill-opacity:1;fill-rule:nonzero;stroke:none"
         d="m 1835.49,1503.1 c -4.84,8.51 -8.31,15.68 -12.72,22.21 -31.8,47.12 -57.82,97.41 -82.88,148.33 -241.19,490.18 -482.64,980.22 -723.92,1470.35 -6.01,12.2 -10.89,24.96 -17.56,40.37 12.06,0.78 20.04,1.73 28.01,1.73 95.37,-0.01 190.78,1.82 286.08,-0.66 252.57,-6.58 443.49,-118.78 566.5,-340.45 41.8,-75.34 77.39,-154.14 115.22,-231.65 131.88,-270.19 263.65,-540.43 395.15,-810.81 39,-80.21 89.49,-151.33 160.34,-206.55 75.2,-58.61 159.35,-94.08 255.8,-96.93 11.87,-0.35 23.72,-1.43 40.14,-2.46 -6.47,-7.02 -8.73,-10.27 -11.71,-12.6 -42.07,-32.94 -83.91,-66.18 -126.45,-98.5 -87.75,-66.67 -187.33,-105.78 -296.15,-118.35 -218.8,-25.27 -402.29,46.01 -550.92,208.09 -3.86,4.2 -7.88,8.27 -13.47,14.14 -13.37,-9.51 -26.8,-18.6 -39.73,-28.35 -37.41,-28.21 -73.79,-57.86 -112.05,-84.85 -123.54,-87.17 -261.78,-126.84 -411.88,-112.61 -230.06,21.8 -401.31,136.75 -507.606,342.4 C 699.5,1753.33 628.328,1903.31 555.086,2052.22 376.336,2415.64 197.68,2779.1 19.0234,3142.56 12.9375,3154.95 7.30469,3167.55 0,3183.16 c 9.76563,1.24 16.5977,2.87 23.4258,2.86 109.3552,-0.06 218.8872,3.55 328.0152,-1.52 137.5,-6.39 260.625,-55.76 368.301,-142.49 80.348,-64.72 138.942,-145.9 183.77,-238.08 116.768,-240.09 233.918,-479.99 350.998,-719.93 47.56,-97.46 95.11,-194.91 143.06,-292.18 33.73,-68.43 76.28,-130.4 134.49,-180.78 70.27,-60.81 152.09,-96.44 243.13,-111.44 18.97,-3.13 38.8,-4.65 60.3,3.5" /><path
         id="path16"
         style="fill:#231f20;fill-opacity:1;fill-rule:nonzero;stroke:none"
         d="m 1911.66,3185.54 c 309.43,6.4 618.89,9.52 933.59,6.84 -5.93,-13.74 -9.04,-23.47 -14.03,-32.1 -63.74,-110.17 -127.78,-220.17 -191.68,-330.24 -57.3,-98.71 -114.69,-197.37 -171.67,-296.25 -13.98,-24.28 -31.05,-44.38 -58.85,-52.87 -34.61,-10.58 -72.83,2.26 -96.11,32.92 -6.42,8.45 -11.6,17.92 -16.63,27.3 -67.57,125.88 -134.93,251.86 -202.54,377.71 -17.09,31.82 -34.75,63.34 -52.41,94.85 -31.17,55.63 -70.6,104.79 -116.84,148.6 -5.68,5.38 -10.72,11.43 -16.05,17.18 1.07,2.02 2.15,4.04 3.22,6.06" /><path
         id="path18"
         style="fill:#231f20;fill-opacity:1;fill-rule:nonzero;stroke:none"
         d="M 1371.21,137.531 C 1311.66,21.6289 1232,-18.9883 1126.72,9.83984 1073.52,24.4102 1030.08,63 995.125,104.941 c -19.961,23.938 -38.242,49.368 -56.234,74.86 -139.762,198.078 -279.274,396.32 -418.828,594.539 -5.547,7.879 -19.563,30.801 -27.239,42.242 20.934,0 45.356,0 62.598,0 27.66,0 51.176,1.707 76.183,0 44.86,-3.773 87.012,-4.98 126.493,-27.75 48.683,-28.09 86.734,-67.062 118.668,-112.871 84.597,-121.332 169.494,-242.449 254.564,-363.461 22.2,-31.578 44.06,-63.57 68.57,-93.32 34.33,-41.66 77.15,-71.27 132.11,-79.27 12.75,-1.859 25.8,-1.621 39.2,-2.379" /><path
         id="path20"
         style="fill:#231f20;fill-opacity:1;fill-rule:nonzero;stroke:none"
         d="M 2801.28,137.922 C 2741.73,22.0195 2662.06,-18.6094 2556.78,10.2188 c -53.19,14.5703 -96.63,53.1601 -131.59,95.1012 -19.96,23.95 -38.24,49.371 -56.23,74.871 -139.76,198.071 -279.28,396.321 -418.83,594.528 -5.55,7.89 -19.56,30.812 -27.24,42.242 20.93,0 45.36,0 62.6,0 27.66,0 51.17,1.711 76.18,0 44.86,-3.77 87.01,-4.969 126.49,-27.75 48.69,-28.082 86.74,-67.063 118.67,-112.859 84.6,-121.34 169.5,-242.461 254.56,-363.461 22.2,-31.582 44.06,-63.571 68.57,-93.321 34.33,-41.672 77.16,-71.269 132.11,-79.281 12.75,-1.848 25.81,-1.617 39.21,-2.367" /><path
         id="path22"
         style="fill:#231f20;fill-opacity:1;fill-rule:nonzero;stroke:none"
         d="M 916.781,137.531 C 857.234,21.6289 777.566,-18.9883 672.289,9.83984 619.094,24.4102 575.652,63 540.695,104.941 c -19.961,23.938 -38.246,49.368 -56.234,74.86 -139.762,198.078 -279.27,396.32 -418.8243,594.539 -5.5508,7.879 -19.5664,30.801 -27.2422,42.242 20.9336,0 45.3555,0 62.5975,0 27.66,0 51.176,1.707 76.184,0 44.859,-3.773 87.012,-4.98 126.492,-27.75 48.684,-28.09 86.734,-67.062 118.672,-112.871 84.594,-121.332 169.492,-242.449 254.558,-363.461 22.2,-31.578 44.059,-63.57 68.571,-93.32 34.328,-41.66 77.152,-71.27 132.105,-79.27 12.75,-1.859 25.809,-1.621 39.207,-2.379" /><path
         id="path24"
         style="fill:#231f20;fill-opacity:1;fill-rule:nonzero;stroke:none"
         d="m 1777.73,0 c -18.23,2.82031 -33.49,4.78125 -48.56,7.60938 -19.29,3.62112 -38.34,8.40232 -57.65,11.87112 -78.58,14.0976 -122.6,61.5781 -141.69,131.5585 -5.43,19.922 -6.9,41.25 -6.97,61.941 -0.68,193.09 -0.69,386.192 -0.77,579.29 0,8.269 1.14,16.531 1.89,26.75 52.16,-10.161 103.03,-15.7 150.01,-34.559 53.21,-21.359 81.97,-63.172 95.22,-114.121 6.18,-23.75 8.74,-48.86 8.86,-73.379 0.96,-190 0.94,-380.012 1.14,-570.0196 0,-7.6211 -0.81,-15.2305 -1.48,-26.9414" /><path
         id="path26"
         style="fill:#231f20;fill-opacity:1;fill-rule:nonzero;stroke:none"
         d="m 3180.44,0 c -18.24,2.82031 -33.5,4.78125 -48.57,7.60938 -19.29,3.62112 -38.33,8.40232 -57.65,11.87112 -78.58,14.0976 -122.6,61.5781 -141.69,131.5585 -5.43,19.922 -6.9,41.25 -6.97,61.941 -0.68,193.09 -0.69,386.192 -0.77,579.29 0,8.269 1.14,16.531 1.89,26.75 52.16,-10.161 103.03,-15.7 150.01,-34.559 53.21,-21.359 81.97,-63.172 95.22,-114.121 6.18,-23.75 8.74,-48.86 8.86,-73.379 0.96,-190 0.94,-380.012 1.14,-570.0196 0,-7.6211 -0.81,-15.2305 -1.47,-26.9414" /><path
         id="path28"
         style="fill:#231f20;fill-opacity:1;fill-rule:nonzero;stroke:none"
         d="m 900.223,817.34 c 22.84,0 306.457,0 372.357,0 -2.05,-6.391 -3.14,-14.758 -5.9,-20.141 -36.46,-70.847 -72.76,-141.777 -109.95,-212.25 -18.64,-35.32 -49.18,-38.801 -74.79,-7.937 -23.06,27.777 -43.79,57.5 -65.39,86.476 -27.484,36.891 -54.394,74.223 -82.429,110.692 -9.785,12.742 -22.164,30.941 -33.898,43.16" /><path
         id="path30"
         style="fill:#231f20;fill-opacity:1;fill-rule:nonzero;stroke:none"
         d="m 2339.53,817.34 c 21.75,0 313.17,0.398 376.73,0 -2.67,-6.078 -6.03,-14.391 -8.78,-19.738 -36.46,-70.852 -72.76,-141.782 -109.94,-212.25 -18.65,-35.352 -49.08,-38.801 -74.8,-8.082 -21.6,25.789 -41.16,53.312 -61.11,80.449 -22.88,31.113 -44.46,63.211 -68,93.801 -15.83,20.57 -36.79,46.128 -54.1,65.82" /><path
         id="path32"
         style="fill:#231f20;fill-opacity:1;fill-rule:nonzero;stroke:none"
         d="m 1976.64,0 c 2.88,7.28906 4.93,14.082 8.12,20.2695 35.33,68.4805 70.83,136.8715 106.31,205.2695 2.26,4.371 4.41,8.859 7.26,12.832 15.79,21.988 41.84,25.309 61.75,6.699 10.71,-10.011 20.03,-21.75 28.71,-33.629 30.95,-42.382 60.55,-85.781 92.28,-127.5504 19.27,-25.3711 41.54,-48.4492 62.42,-72.5898 1.99,-2.31252 3.67,-4.89064 8.42,-11.3008 -126.78,0 -249.74,0 -375.27,0" /></g></g></svg>